<svg viewBox="0 0 200 200" xmlns="http://www.w3.org/2000/svg"><path d="M75.9,109.77c.248-.259,1.016,0,.762.509-3.532,6.18-10.07,12.962-8.895,22.363a24.358,24.358,0,0,0,3.05,8.132,15.964,15.964,0,0,1-4.828-7.878C63.733,123.994,70.18,115.747,75.9,109.77Z" fill="#b4b4b4"/><path d="M82.763,103.671a2.529,2.529,0,0,1,1.016-2.8c1.341-1.1,4.23-.779,4.829,1.017,0,.254.254.762,0,.508a3.242,3.242,0,0,0-3.05-.508C84.542,102.147,82.763,102.4,82.763,103.671Z" fill="#b4b4b4"/><path d="M93.436,99.605a2.06,2.06,0,0,1-1.27-1.016c-1.079-2.062.533-4.549,2.033-3.05C92.816,96.231,93.061,98.1,93.436,99.605Z" fill="#b4b4b4"/><path d="M93.182,89.44c-1.27-.762-3.812-2.8-5.336-1.27a3.542,3.542,0,0,0-.763,2.287c0,.254.254,1.779,0,1.779-1.27.762-2.8,1.524-4.066,2.287-1.525.762-2.8,1.779-4.32,2.541-2.033-.508-5.845-1.27-5.591,1.779a7.038,7.038,0,0,0,.254,2.287,11.233,11.233,0,0,0,1.525,4.066c.762,1.271,2.541,3.812,3.3,2.8.254-.255-1.271-1.017-2.288-3.05s-2.033-4.32-1.524-6.607a11.879,11.879,0,0,1,4.32.762h.762l9.149-5.082c1.008-.5.508-2.09.508-3.812a13.666,13.666,0,0,1,3.3,1.779c4.111,2.467,6.861,5.292,6.861,10.165,0,4.391-4.363,7.828-8.386,9.657.356.474,2.084.148,4.072-1.232-1.911,4.922-3.13,14.87-2.547,19.529a11.4,11.4,0,0,0,.254,2.795c0,.762.508,1.779.508,2.541.574-9.757-.54-10.693,2.287-23.888a9.178,9.178,0,0,0,.322-1.6,16.326,16.326,0,0,0,5.015-7.547C101.437,97.984,99.371,92.977,93.182,89.44Z" fill="#b4b4b4"/><path d="M91.149,100.622c.508-.508,1.4-.793,1.525,0a4.728,4.728,0,0,1,0,.762,1.528,1.528,0,0,1-1.017.254A.605.605,0,0,1,91.149,100.622Z" fill="#b4b4b4"/><path d="M92.166,106.467a6.126,6.126,0,0,0,1.27-3.558.249.249,0,0,1,.254-.254,4.074,4.074,0,0,0,3.558,0,2.4,2.4,0,0,1-2.8,1.525A2.372,2.372,0,0,1,92.166,106.467Z" fill="#b4b4b4"/><path d="M147.311,62.757c-13.117-8.788-33.036-2.541-36.594,10.165.254,0,18.847-10.439,27.446,7.878,5.362,11.424-.509,30.241-10.928,39.39s-13.977,5.336-13.977,5.336l1.271-12.2a11.888,11.888,0,0,1-6.353-6.353,3.612,3.612,0,0,1-.509-1.525c-1.524-6.1-1.778,19.822-5.082,20.331s-18.806,3.3-29.479,10.927a22.561,22.561,0,0,0-6.607,6.607c1.525.509,3.052.752,4.066,1.017a151.072,151.072,0,0,0,16.772,3.558c22.6,3.224,45.637-.262,67.6-5.083-2.033-4.066-5.317-8.7-9.657-10.165-8.6-2.909,3.374-8.614,11.182-29.479C164.153,82.605,160.37,71.506,147.311,62.757ZM155.189,90.2a49.416,49.416,0,0,1-7.369,17.534.571.571,0,0,1-1.017-.508c1.525-3.812,3.124-7.6,4.32-11.69,2.441-8.343,2.945-14.181-1.016-22.617-1.306-2.779-2.8-4.32-2.8-4.828,0-.763,2.523,1.794,3.558,3.049A22.107,22.107,0,0,1,155.189,90.2Z" fill="#606c38"/><path d="M44.136,91.473a10.068,10.068,0,0,0-2.542-3.812,12.9,12.9,0,0,0-4.066-2.287,12.591,12.591,0,0,0-4.32-.508c0-1.016,0-2.541-.254-2.287-.254,0-.254,1.779-.254,2.541a.249.249,0,0,0,.254.254,15.225,15.225,0,0,1,7.624,3.05,16.318,16.318,0,0,1,2.541,3.3c.762,1.271,1.017,4.321,1.525,4.066A6.264,6.264,0,0,0,44.136,91.473Z" fill="#b4b4b4"/><path d="M137.4,85.883c-.555-6.112-4.665-12.129-10.673-13.977a16.936,16.936,0,0,0-11.69.762c-2.789,1.285-6.338,2.8-8.64,11.69-2.419,9.337-1.809,15.157,0,20.584,1.715,4,3.525,7.221,7.878,8.386a15.4,15.4,0,0,0,5.845.509c2.033-.255,5.59-2.033,5.082-2.288-.254-.508-1.517,1.073-5.082,1.525-2.755.35-4.661-.057-7.624-2.033-1.909-1.272-3.419-4.414-4.066-6.607-1.729-5.86-1.107-11.965.254-17.789a21.526,21.526,0,0,1,2.033-5.845,27.912,27.912,0,0,0,13.215-4.066c2.033,8.64,12.452,17.281,13.214,15.248C137.654,91.219,137.4,86.9,137.4,85.883Z" fill="#b4b4b4"/><path d="M111.243 90.500 A1.525 1.271 0 1 0 114.293 90.500 A1.525 1.271 0 1 0 111.243 90.500 Z" fill="#b4b4b4" transform="translate(3.217 184.869) rotate(-79.49)"/><path d="M121.920 92.405 A1.525 1.271 0 1 0 124.970 92.405 A1.525 1.271 0 1 0 121.920 92.405 Z" fill="#b4b4b4" transform="translate(10.073 196.924) rotate(-79.49)"/><path d="M121.644,88.17a3.952,3.952,0,0,1,4.321-1.271A3.215,3.215,0,0,1,128,89.949c0,3.562-2.6-3.53-6.1-1.779C121.9,88.17,121.487,88.484,121.644,88.17Z" fill="#b4b4b4"/><path d="M113.512,84.358c-2.572,0-3.6,2.5-3.3,2.8.162.162.515-.114.762-.254,2.092-1.185,4.394-1.451,6.1.254C117.481,85.921,114.764,84.358,113.512,84.358Z" fill="#b4b4b4"/><path d="M117.324,89.694c.412.825-2.188,5.138-2.541,5.845-.254.763.2,1.291.508,2.033.218.525.508.763.508,1.271a7.913,7.913,0,0,1-2.287-1.779c-1.016-1.271,0-2.541.763-3.558A15.5,15.5,0,0,1,117.324,89.694Z" fill="#b4b4b4"/><path d="M122.661,101.638c1.013,1.013.176,3.777-2.541,4.321-1.686.561-4.575-.555-4.575-2.288C120.039,106.239,122.372,101.35,122.661,101.638Z" fill="#b4b4b4"/><path d="M164.846,51.829a.381.381,0,0,1,.762,0c.275,5.223,1.017,17.72,1.017,24.143,0,22.3.065,24.92-.254,29.732-.3,4.572-.254,8.9-.508,13.469a.382.382,0,0,1-.763,0c-.254-4.574-.254-8.894-.508-13.469,0-3.3,0-6.607-.254-9.91,0-23.315-.065-25.59.254-29.733C164.592,61.486,164.592,56.658,164.846,51.829Z" fill="#b4b4b4"/><path d="M162.559,46.493c0,2.23-26.817,1.382-38.373,1.779a488.494,488.494,0,0,1-51.842-.509c-4.32-.254-13.469-.254-12.707-1.016.255-.254,8.641,0,12.961,0,0,0,60.482-.762,64.8-.762C145.532,45.985,162.559,45.222,162.559,46.493Z" fill="#b4b4b4"/><path d="M136.384,152.464s-61.753,0-66.073-.254c-11.505,0-10.03-.407-11.944-.508.253-4.053.762-21.491.762-25.413,0-8.895-.508-66.582-.508-66.582-.254-4.32,0-9.911-.763-9.911-1.778,0,0,14.232,0,23.126l-1.524,79.8a1.689,1.689,0,0,0,1.016,1.271l3.3.254a92.5,92.5,0,0,1,9.911.254c4.32,0,30.748-.042,39.644-.254,45.988-1.1,52.858-.9,52.858-1.525C162.813,151.193,136.384,152.464,136.384,152.464Z" fill="#b4b4b4"/><path d="M161.288,161.867c-2.033,0-17.535-.255-17.28-1.271.254-.762,3.812-.508,5.845-.762,0,0,15.239-1.555,17.026-2.033a1.847,1.847,0,0,1,2.287,1.524C168.912,162.375,163.321,161.867,161.288,161.867Z" fill="#606c38"/><path d="M43.881,96.81c-2.541,0-26.429-.508-28.462-.508,0-.222,0-.432,0-.631,1.906-5.518,7.571-9.1,13.214-10.043a.246.246,0,0,0,.254-.254c-.017-.868.021-1.816,0-2.464.986.259,2.03.234,2.03-.077.254-.254-1.779-.254-2.541-1.271-.948-.947-.763-2.684-.763-4.828a3.092,3.092,0,0,1,1.525-3.05,3.3,3.3,0,0,1,2.8,0,3.5,3.5,0,0,1,1.524,2.033c.547,1.768.763,4.066-.254,5.591a2.731,2.731,0,0,1-1.27,1.017c.254.254,2.033-.254,2.287-1.525.762-2.541.508-6.353-1.779-7.624a4.213,4.213,0,0,0-5.083.508,5.6,5.6,0,0,0-1.27,4.066,6.8,6.8,0,0,0,1.27,4.321,2.319,2.319,0,0,0,.972.658c.011.764.045,1.6.045,2.137a8.159,8.159,0,0,0-4.32.508,16.448,16.448,0,0,0-8.584,6.946c.075-1.567.2-1.358.2-9.995a71.447,71.447,0,0,0-.254-7.37c-.254-2.541.508-7.37-.508-7.37L14.4,82.325s-.254,12.2-.509,14.739a.674.674,0,0,0,.763.762,71.05,71.05,0,0,0,7.37,0c2.541,0,12.452,0,14.993-.254C39.815,97.572,44.136,97.826,43.881,96.81Z" fill="#b4b4b4"/><path d="M45.152,65.3c-2.189-.219-18.783.184-21.855.508-2.54.269-4.828.255-7.37.509-.254,1.016,14.486.508,14.486.508s11.69.254,13.723.254c0,.1-.048,22.363.762,22.363h.215l.547-17.28a39.37,39.37,0,0,1,.254-5.591C45.914,65.806,45.66,65.3,45.152,65.3Z" fill="#b4b4b4"/><path d="M54.809,119.173c-4.066,0-39.9.254-47.522.254-.254-4.828-.254-9.4-.254-14.231,0,0-.47-42.465-.585-45.489,6.871,0,13.521.123,20.407,0,7.119-.127,13.974-.127,21.093,0a.67.67,0,0,0,.762-.762.677.677,0,0,0-.762-.762c-9.957-.178-32.233.177-42.186,0-.254-.005-.508.254-.508,1.016a.546.546,0,0,0,.508.508c0,4.775-.017,9.741-.254,14.486,0,0-.508,41.422-.508,46.505a1.094,1.094,0,0,0,1.017,1.017c15.539,0,31.88-.67,48.538-1.017a.815.815,0,0,0,.762-.762C55.317,119.681,55.063,119.173,54.809,119.173Z" fill="#b4b4b4"/><path d="M47.439,103.926c1.017,0,.254,1.016-.254,1.016-2.287.508-11.436.508-13.977.508a164.485,164.485,0,0,1-18.551-1.016c-1.017-.254-.508-1.271.254-1.525a66.259,66.259,0,0,1,12.96-.508A148.1,148.1,0,0,1,47.439,103.926Z" fill="#b4b4b4"/><path d="M42.1,111.041c0,1.525-7.879.99-9.149,1.017-6.1.127-12.2.508-18.3-.763-.763-.254-.254-1.016.254-1.016a94.966,94.966,0,0,1,14.739-.254C32.446,110.025,41.34,109.77,42.1,111.041Z" fill="#b4b4b4"/><path d="M194.579,153.48l-11.436-9.4s4.6-4.864,5.083-5.337a.652.652,0,0,0-.254-1.016c-9.922-4.068-34.469-14.771-35.324-14.486a.929.929,0,0,0-.508,1.271l18.3,32.274a.628.628,0,0,0,1.016.254l4.575-4.574,12.2,10.165h.508l6.1-8.64S195.087,153.735,194.579,153.48Zm-6.353,8.9-11.944-10.928a.774.774,0,0,0-1.017,0c-1.016,1.525-2.551,2.788-3.812,4.575-.313.444-.913-.337-1.27-1.017l-15.248-28.462L186.447,139l-4.066,4.829a.352.352,0,0,0,0,.508l10.673,9.911Z" fill="#b4b4b4"/><path d="M25.584,79.529c-1.016,0-2.287-.762-2.287-1.779,0-1.365,2.206-2.084,2.033-1.016-.041.251-.43.371-.762.508a1.042,1.042,0,0,0-.508.763c0,.762.762,1.016,1.524,1.016C26.093,78.767,26.093,79.529,25.584,79.529Z" fill="#b4b4b4"/><path d="M35.495,79.529c-.247-.058-.508-.254-.508-.508s.515-.2.762-.254c1.106-.261.255-2.541-.762-2.287-.254,0-.508,0-.508-.254s.016-.419.254-.509c.787-.3,1.525.255,2.033,1.017a2.173,2.173,0,0,1,0,2.287A1.318,1.318,0,0,1,35.495,79.529Z" fill="#b4b4b4"/><path d="M74.885,159.579c-2.541-.254-20.076-1.016-22.109-1.016-.823,0-.808-17.994-1.779-27.7,0-.508,0-2.287-.508-2.541-.763-.254-.763,1.779-.763,2.287,0,.762-.635,16.261-.508,23.126.078,4.193-.337,6.608,1.017,7.623,1.016.763,2.8.254,4.066.254,6.861,0,27.954-.254,28.208-.762C83.271,159.071,77.426,159.834,74.885,159.579Z" fill="#606c38"/><path d="M68.024,37.6c-5.6-.127-11.436-.508-17.027.509a1.362,1.362,0,0,0-1.271,1.27c-.324,6.173.255,26.419.255,30.5,0,1.778,1.016.762,1.27-.255.508-3.3.315-6.6.508-9.911.371-6.347.763-12.452.763-18.8,7.369-.762,14.749-.636,22.363-1.271,2.545-.212,9.911.254,9.911-.762s-5.591-.762-6.353-.762C77.172,37.852,70.31,37.65,68.024,37.6Z" fill="#606c38"/><path d="M175.011,39.885a1.866,1.866,0,0,0-.508-1.524c-.762-1.271-3.812-.763-5.337-.763-2.033,0-27.191,0-27.446.763-.254,1.016,23.634,2.033,25.667,2.033.254,0,4.32,0,4.32.254,0,.762,1.271,30.241,2.034,30.241.508,0,.488-5.339.762-7.878C175.215,56.4,175.011,41.156,175.011,39.885Z" fill="#606c38"/></svg>