<?xml version="1.0" standalone="no"?>
<!DOCTYPE svg PUBLIC "-//W3C//DTD SVG 20010904//EN"
 "http://www.w3.org/TR/2001/REC-SVG-20010904/DTD/svg10.dtd">
<svg version="1.0" xmlns="http://www.w3.org/2000/svg"
 width="260.000000pt" height="260.000000pt" viewBox="0 0 260.000000 260.000000"
 preserveAspectRatio="xMidYMid meet">
<metadata>
Created by potrace 1.14, written by Peter Selinger 2001-2017
</metadata>
<g transform="translate(0.000000,260.000000) scale(0.100000,-0.100000)"
fill="#000000" stroke="none">
<path d="M1080 2558 c-133 -23 -210 -48 -335 -109 -273 -131 -474 -334 -600
-604 -41 -87 -71 -168 -80 -214 -2 -12 -7 -32 -11 -43 -3 -11 -12 -56 -19
-100 l-12 -80 26 8 c14 4 285 8 601 9 539 2 575 3 573 19 -10 123 -16 346 -17
698 -1 275 -5 429 -11 431 -5 2 -57 -5 -115 -15z"/>
<path d="M1457 2563 c-2 -5 -3 -195 -2 -423 2 -353 6 -493 19 -685 l2 -30 155
-2 c84 -1 331 -5 548 -9 l393 -7 -6 64 c-4 35 -16 98 -27 139 -11 41 -21 82
-24 91 -8 38 -80 194 -118 257 -101 169 -266 336 -433 435 -98 59 -251 124
-330 142 -184 40 -171 38 -177 28z"/>
<path d="M35 1121 c17 -144 86 -342 168 -479 94 -158 249 -318 404 -418 93
-60 277 -141 359 -159 165 -35 264 -49 265 -37 3 31 4 1120 2 1132 -4 14 -73
16 -604 15 l-600 0 6 -54z"/>
<path d="M1485 609 l0 -564 45 2 c105 4 346 99 482 190 284 190 478 485 544
826 9 48 15 90 12 92 -3 3 -247 8 -544 11 l-539 6 0 -563z"/>
</g>
</svg>
